<?xml version="1.0" encoding="iso-8859-1"?>
<!-- Generator: Adobe Illustrator 19.0.0, SVG Export Plug-In . SVG Version: 6.00 Build 0)  -->
<svg version="1.1" id="Capa_1" xmlns="http://www.w3.org/2000/svg" xmlns:xlink="http://www.w3.org/1999/xlink" x="0px" y="0px"
	 viewBox="0 0 480 480" style="enable-background:new 0 0 480 480;" xml:space="preserve">
<g>
	<g>
		<path d="M464,0H64c-4.418,0-8,3.582-8,8v343.842l-41.57,8.315C10.691,360.904,8,364.187,8,368v40c0,4.418,3.582,8,8,8h16v24
			c0,4.418,3.582,8,8,8h16v24c0,4.418,3.582,8,8,8h400c4.418,0,8-3.582,8-8V8C472,3.582,468.418,0,464,0z M24,400v-25.441
			l73.57-14.715c3.2-0.64,5.69-3.16,6.293-6.367l21.513-114.688c6.99,1.617,14.257,1.616,21.247-0.002l21.513,114.69
			c0.603,3.207,3.093,5.727,6.293,6.367L248,374.559V400H24z M106.986,205.515c-1.969-4.233-2.988-8.846-2.986-13.515
			c0.012-17.673,14.349-31.99,32.022-31.978c17.673,0.012,31.99,14.349,31.978,32.022c-0.009,12.438-7.223,23.744-18.5,28.991
			C133.474,228.489,114.44,221.541,106.986,205.515z M48,432v-16h176v16H48z M456,464H72v-16h160c4.418,0,8-3.582,8-8v-24h16
			c4.418,0,8-3.582,8-8v-40c0-3.813-2.691-7.096-6.43-7.844l-74.703-14.941L161.72,232.476
			c22.389-14.201,29.026-43.864,14.825-66.253c-14.201-22.389-43.864-29.026-66.253-14.825
			c-22.389,14.201-29.026,43.864-14.825,66.253c3.787,5.97,8.845,11.029,14.813,14.818L89.133,345.215L72,348.642V98.961l184,58.88
			v26.967c-21.645,4.418-35.61,25.547-31.192,47.192c4.418,21.645,25.547,35.61,47.192,31.192
			c21.645-4.418,35.61-25.547,31.192-47.192c-3.207-15.709-15.483-27.985-31.192-31.192v-26.967l184-58.88V464z M288,224
			c0,13.255-10.745,24-24,24s-24-10.745-24-24s10.745-24,24-24C277.249,200.014,287.986,210.751,288,224z M248,72
			c0-8.837,7.163-16,16-16s16,7.163,16,16s-7.163,16-16,16C255.167,87.991,248.009,80.833,248,72z M456,82.159l-184,58.882v-38.177
			c17.112-4.418,27.402-21.872,22.984-38.984S273.112,36.478,256,40.896s-27.402,21.872-22.984,38.984
			c2.91,11.272,11.712,20.074,22.984,22.984v38.178L72,82.159V16h384V82.159z"/>
	</g>
</g>
<g>
	<g>
		<rect x="424" y="128" width="16" height="32"/>
	</g>
</g>
<g>
	<g>
		<rect x="424" y="184" width="16" height="32"/>
	</g>
</g>
<g>
	<g>
		<rect x="424" y="240" width="16" height="32"/>
	</g>
</g>
<g>
	<g>
		<rect x="424" y="296" width="16" height="32"/>
	</g>
</g>
<g>
	<g>
		<rect x="424" y="352" width="16" height="32"/>
	</g>
</g>
<g>
	<g>
		<rect x="424" y="408" width="16" height="32"/>
	</g>
</g>
<g>
</g>
<g>
</g>
<g>
</g>
<g>
</g>
<g>
</g>
<g>
</g>
<g>
</g>
<g>
</g>
<g>
</g>
<g>
</g>
<g>
</g>
<g>
</g>
<g>
</g>
<g>
</g>
<g>
</g>
</svg>
