<?xml version="1.0" encoding="iso-8859-1"?>
<!-- Generator: Adobe Illustrator 19.0.0, SVG Export Plug-In . SVG Version: 6.00 Build 0)  -->
<svg version="1.1" id="Layer_1" xmlns="http://www.w3.org/2000/svg" xmlns:xlink="http://www.w3.org/1999/xlink" x="0px" y="0px"
	 viewBox="0 0 512 512" style="enable-background:new 0 0 512 512;" xml:space="preserve">
<path style="fill:#7dadb7;" d="M442.124,384.035l45.966-124.104c1.133-3.063,0.622-6.488-1.364-9.078l-61.783-80.793
	c-1.717-2.256-4.363-3.62-7.194-3.722c-2.887-0.241-5.569,1.058-7.454,3.184l-29.926,33.667l-46.932-68.833
	c48.156-4.253,98.216-13.684,98.216-34.562c0-28.372-91.212-35.673-147.343-37.489L244.653,4.139
	c-1.959-2.868-5.272-4.4-8.809-4.103c-3.462,0.353-6.461,2.562-7.806,5.774l-23.98,57.055
	C141.657,65.743,70.462,74.544,70.462,99.793c0,21.623,53.697,30.976,103.362,35.005L94.67,323.124L47.219,291.49
	c-2.321-1.531-5.198-1.996-7.853-1.234c-2.673,0.752-4.882,2.636-6.052,5.161L0.817,365.832l17.265,7.964l27.837-60.325
	l47.785,31.857c2.358,1.559,5.291,2.014,8.011,1.197c2.72-0.826,4.929-2.813,6.024-5.421l86.133-204.933
	c25.471,1.447,47.518,1.642,57.186,1.642c10.082,0,33.626-0.212,60.479-1.836l59.987,87.985c1.652,2.413,4.326,3.945,7.24,4.131
	c2.915,0.121,5.764-0.975,7.714-3.174l30.371-34.159l51.6,67.482L422.742,381.64c-0.993,2.673-0.733,5.634,0.696,8.094L494.763,512
	l16.42-9.57L442.124,384.035z M410.452,99.775c-9.43,5.314-39.521,12.687-89.341,16.505l-23.452-34.397
	C360.791,84.882,399.401,93.4,410.452,99.775z M91.727,99.802c9.605-5.358,41.361-13.922,104.155-17.487l-14.293,34.007
	C131.534,112.526,101.268,105.14,91.727,99.802z M251.057,118.803c-17.935,0-34.369-0.446-49.381-1.203l17.495-41.625
	c0.149-0.325,0.297-0.631,0.41-0.974l19.214-45.716l60.265,88.394C284.431,118.393,268.429,118.803,251.057,118.803z"/>
<g>
</g>
<g>
</g>
<g>
</g>
<g>
</g>
<g>
</g>
<g>
</g>
<g>
</g>
<g>
</g>
<g>
</g>
<g>
</g>
<g>
</g>
<g>
</g>
<g>
</g>
<g>
</g>
<g>
</g>
</svg>
