<?xml version="1.0" encoding="iso-8859-1"?>
<!-- Generator: Adobe Illustrator 19.0.0, SVG Export Plug-In . SVG Version: 6.00 Build 0)  -->
<svg version="1.1" id="Capa_1" xmlns="http://www.w3.org/2000/svg" xmlns:xlink="http://www.w3.org/1999/xlink" x="0px" y="0px"
	 viewBox="0 0 480 480" style="enable-background:new 0 0 480 480;" xml:space="preserve">
<g>
	<g>
		<path d="M158.859,239.883L112,161.781V124C111.931,62.173,61.827,12.069,0,12v16c52.995,0.059,95.941,43.005,96,96v40
			c0,1.45,0.394,2.874,1.141,4.117L137.871,236H104c-4.417-0.001-7.999,3.579-8,7.996c0,0.001,0,0.003,0,0.004v32H56
			c-4.418,0-8,3.582-7.999,8.001c0,2.674,1.337,5.172,3.562,6.655L96,320.281V356H40c-4.417-0.001-7.999,3.579-8,7.996
			c0,0.001,0,0.003,0,0.004v88H0v16h40c4.417,0.001,7.999-3.579,8-7.996c0-0.001,0-0.003,0-0.004v-88h56
			c4.417,0.001,7.999-3.579,8-7.996c0-0.001,0-0.003,0-0.004V252h40c4.418,0.001,8-3.579,8.001-7.997
			C160.001,242.552,159.607,241.127,158.859,239.883z M96,301.055L82.422,292H96V301.055z"/>
	</g>
</g>
<g>
	<g>
		<path d="M384,164v-40c0.059-52.995,43.005-95.941,96-96V12c-61.827,0.069-111.931,50.173-112,112v37.781l-46.859,78.102
			c-2.274,3.787-1.048,8.701,2.739,10.976c1.244,0.747,2.669,1.142,4.12,1.142h40v112c-0.001,4.417,3.579,7.999,7.996,8
			c0.001,0,0.003,0,0.004,0h56v88c-0.001,4.417,3.579,7.999,7.996,8c0.001,0,0.003,0,0.004,0h40v-16h-32v-88
			c0.001-4.417-3.579-7.999-7.996-8c-0.001,0-0.003,0-0.004,0h-56v-48h48v-16h-48v-48c0.001-4.417-3.579-7.999-7.996-8
			c-0.001,0-0.003,0-0.004,0h-33.871l40.73-67.883C383.606,166.874,384,165.451,384,164z"/>
	</g>
</g>
<g>
	<g>
		<path d="M64,116c0,8.837-7.163,16-16,16s-16-7.163-16-16H16c0,17.673,14.327,32,32,32s32-14.327,32-32H64z"/>
	</g>
</g>
<g>
	<g>
		<path d="M448,116c-0.01,8.832-7.168,15.99-16,16c-8.832-0.01-15.99-7.168-16-16h-16c0,17.673,14.327,32,32,32
			c17.673,0,32-14.327,32-32H448z"/>
	</g>
</g>
<g>
	<g>
		<path d="M328.004,20c-0.001,0-0.003,0-0.004,0H152c-4.417-0.001-7.999,3.579-8,7.996c0,0.001,0,0.003,0,0.004v152
			c-0.001,4.417,3.579,7.999,7.996,8c0.001,0,0.003,0,0.004,0h30.777l-14.695,102.867c-0.543,3.801,1.689,7.453,5.32,8.703
			c0.837,0.284,1.714,0.429,2.598,0.43c2.87-0.001,5.52-1.539,6.945-4.031L244.641,188H328c4.417,0.001,7.999-3.579,8-7.996
			c0-0.001,0-0.003,0-0.004V28C336.001,23.583,332.421,20.001,328.004,20z M320,172h-80c-2.871,0-5.522,1.538-6.945,4.031
			l-43.207,75.609l10.07-70.508c0.627-4.373-2.41-8.425-6.783-9.052C192.759,172.027,192.38,172,192,172h-32V36h160V172z"/>
	</g>
</g>
<g>
	<g>
		<path d="M289.809,54.937l-66.402,81.156l-33.75-33.75l-11.312,11.312l40,40c1.499,1.502,3.534,2.346,5.656,2.344
			c0.133,0,0.266,0,0.398-0.008c2.258-0.116,4.362-1.18,5.793-2.93l72-88L289.809,54.937z"/>
	</g>
</g>
<g>
</g>
<g>
</g>
<g>
</g>
<g>
</g>
<g>
</g>
<g>
</g>
<g>
</g>
<g>
</g>
<g>
</g>
<g>
</g>
<g>
</g>
<g>
</g>
<g>
</g>
<g>
</g>
<g>
</g>
</svg>
